# xmcd
#
# Track frame offsets: 
#        150
#        27382
#        50539
#        67432
#        92045
#        109132
#        131017
#        147537
#        170532
#        189395
#
# Disc length: 2775 seconds
#
# Revision: 3
# Processed by: cddbd v1.5.2PL0 Copyright (c) Steve Scherf et al.
# Submitted via: ExactAudioCopyFreeDBPlugin 1.0
#
DISCID=9a0ad50a
DTITLE=Al Green - Your Heart's in Good Hands
DYEAR=1995
DGENRE=Soul
TTITLE0=Your Heart's in Good Hands
TTITLE1=Keep on Pushing Love
TTITLE2=Could This Be the Love
TTITLE3=Love is a Beautiful Thing
TTITLE4=One Love
TTITLE5=Don't Look Back
TTITLE6=Best Love
TTITLE7=Your Love (Is More Than I Ever Hoped For)
TTITLE8=What Does it Take
TTITLE9=People in the World (Keep on Lovin' You)
EXTD=Record Label:\tMCA Records\nCatalog Number:\tMCAD-11350\nRecordin
EXTD=g Dates:\t?\nOriginal Release:\tNovember 7, 1995\nCD Reissue:\tNA
EXTD=\n\nAl Green:\tVocals\nLouis Biancaniello:\tKeyboards, Hammond B3
EXTD=Organ\nAndy Cox:\tGuitar, Percussion\nTommy Faragher:\tKeyboards
EXTD=, Background Vocals\nGraeme Hamilton:\tTrumpet\nWayne Jackson:\tT
EXTD=rombone, Trumpet\nBashiri Johnson:\tPercussion\nWill Lee:\tBass\n
EXTD=Andrew Love:\tSaxophone\nFrank Martin:\tConductor, String Arrange
EXTD=ments\nTony Mason:\tDrums\nThe Memphis Horns:\tHorn\nDavid Palmer
EXTD=:\tDrums\nPaul Pesco:\tGuitar\nBernard "Pretty" Purdie:\tDrums\nR
EXTD=oger Rosenberg:\tBaritone Saxophone\nChris Scott:\tTrumpet\nAndy 
EXTD=Snitzer:\tTenor Saxophone\nDavid Steele:\tBass, Guitar, Keyboards
EXTD=\nCurtis Stigers:\tSaxophone\nRichard Tee:\tOrgan, Keyboards\nNar
EXTD=ada Michael Walden:\tDrums\nDoug Wimbish:\tBass\nNikita Germaine:
EXTD=\tBackground Vocals\nLotti Golden:\tBackground Vocals\nSandy Grif
EXTD=fith:\tBackground Vocals\nSkyler Jett:\tBackground Vocals\nKennan
EXTD=Keating:\tBackground Vocals\nPaulette McWilliams:\tBackground Vo
EXTD=cals\nThe Mint Juleps:\tBackground Vocals\nCindy Mizelle:\tBackgr
EXTD=ound Vocals\nB.J. Nelson:\tBackground Vocals\nClaytoven Richardso
EXTD=n:\tBackground Vocals\nNicki Richards:\tBackground Vocals
EXTT0=
EXTT1=
EXTT2=
EXTT3=
EXTT4=
EXTT5=
EXTT6=
EXTT7=
EXTT8=
EXTT9=
PLAYORDER=
